<?xml version="1.0" encoding="UTF-8" standalone="no"?>
<svg
   xmlns:dc="http://purl.org/dc/elements/1.1/"
   xmlns:cc="http://creativecommons.org/ns#"
   xmlns:rdf="http://www.w3.org/1999/02/22-rdf-syntax-ns#"
   xmlns:svg="http://www.w3.org/2000/svg"
   xmlns="http://www.w3.org/2000/svg"
   xmlns:sodipodi="http://sodipodi.sourceforge.net/DTD/sodipodi-0.dtd"
   xmlns:inkscape="http://www.inkscape.org/namespaces/inkscape"
   data-name="Layer 1"
   viewBox="0 0 100 125"
   x="0px"
   y="0px"
   version="1.1"
   id="svg10"
   sodipodi:docname="logo.svg"
   inkscape:version="0.92.1 r15371">
  <metadata
     id="metadata16">
    <rdf:RDF>
      <cc:Work
         rdf:about="">
        <dc:format>image/svg+xml</dc:format>
        <dc:type
           rdf:resource="http://purl.org/dc/dcmitype/StillImage" />
        <dc:title>Artboard 28</dc:title>
      </cc:Work>
    </rdf:RDF>
  </metadata>
  <defs
     id="defs14" />
  <sodipodi:namedview
     pagecolor="#ffffff"
     bordercolor="#666666"
     borderopacity="1"
     objecttolerance="10"
     gridtolerance="10"
     guidetolerance="10"
     inkscape:pageopacity="0"
     inkscape:pageshadow="2"
     inkscape:window-width="1870"
     inkscape:window-height="1057"
     id="namedview12"
     showgrid="false"
     inkscape:zoom="7.552"
     inkscape:cx="29.749112"
     inkscape:cy="101.73172"
     inkscape:window-x="0"
     inkscape:window-y="0"
     inkscape:window-maximized="1"
     inkscape:current-layer="svg10" />
  <title
     id="title2">Artboard 28</title>
  <path
     d="M87.37,20.12H64.9A17.49,17.49,0,0,0,61,15.56L69.56,7A3.25,3.25,0,0,0,65,2.37l-10,10a17.17,17.17,0,0,0-9.88,0l-10-10A3.25,3.25,0,0,0,30.44,7l8.6,8.6a17.47,17.47,0,0,0-3.95,4.56H12.63A10.24,10.24,0,0,0,2.39,30.36V83A10.24,10.24,0,0,0,12.63,93.28h8.68v3a2.3,2.3,0,0,0,2.3,2.3h6.81a2.3,2.3,0,0,0,2.3-2.3v-3H67.29v3a2.3,2.3,0,0,0,2.3,2.3H76.4a2.3,2.3,0,0,0,2.3-2.3v-3h8.68A10.24,10.24,0,0,0,97.61,83V30.36A10.24,10.24,0,0,0,87.37,20.12ZM71.92,75.67a5.49,5.49,0,0,1-5.49,5.49H19.33a5.49,5.49,0,0,1-5.49-5.49v-38a5.49,5.49,0,0,1,5.49-5.49H66.44a5.49,5.49,0,0,1,5.49,5.49ZM84.24,70a3.47,3.47,0,1,1,3.47-3.47A3.47,3.47,0,0,1,84.24,70Zm0-9.86a3.47,3.47,0,1,1,3.47-3.47A3.47,3.47,0,0,1,84.24,60.13Zm0-9.86a3.47,3.47,0,1,1,3.47-3.47A3.47,3.47,0,0,1,84.24,50.26ZM39.38,63.59l-.62-23.84A1.21,1.21,0,0,1,40,38.51h5.83A1.21,1.21,0,0,1,47,39.75L46.4,63.59a1.07,1.07,0,0,1-1.07,1H40.45A1.07,1.07,0,0,1,39.38,63.59ZM47,70v3a1.81,1.81,0,0,1-1.81,1.81H40.57a1.81,1.81,0,0,1-1.81-1.81V70a1.81,1.81,0,0,1,1.81-1.81h4.65A1.81,1.81,0,0,1,47,70Z"
     id="path4"
     style="fill:#800000" />
</svg>
